<svg xmlns="http://www.w3.org/2000/svg" viewBox="0 0 48 48" width="48" height="48"><svg x="15.0" y="14.0" width="19.0" height="19.0" viewBox="0 0 36.6811 36.6806" preserveAspectRatio="none">
<defs>
<clipPath id="i0-clip-0">
<path clip-rule="nonzero" d="M 0 26 L 11 26 L 11 36.363281 L 0 36.363281 Z M 0 26 "/>
</clipPath>
<clipPath id="i0-clip-1">
<path clip-rule="nonzero" d="M 26 0 L 36.363281 0 L 36.363281 11 L 26 11 Z M 26 0 "/>
</clipPath>
</defs>
<g clip-path="url(#i0-clip-0)">
<path fill-rule="nonzero" fill="#fff" fill-opacity="1" d="M 9.875 32.648438 C 9.152344 35.328125 6.394531 36.910156 3.714844 36.1875 C 1.039062 35.464844 -0.546875 32.707031 0.175781 30.03125 C 0.898438 27.351562 3.65625 25.765625 6.335938 26.488281 C 9.015625 27.210938 10.597656 29.96875 9.875 32.648438 "/>
</g>
<g clip-path="url(#i0-clip-1)">
<path fill-rule="nonzero" fill="#fff" fill-opacity="1" d="M 36.1875 6.332031 C 35.464844 9.011719 32.707031 10.597656 30.03125 9.875 C 27.351562 9.152344 25.765625 6.394531 26.488281 3.714844 C 27.210938 1.035156 29.96875 -0.546875 32.648438 0.175781 C 35.328125 0.898438 36.914062 3.65625 36.1875 6.332031 "/>
</g>
<path fill-rule="nonzero" fill="#fff" fill-opacity="1" d="M 4.113281 34.363281 L 2 32.253906 L 32.253906 2 L 34.363281 4.109375 Z M 4.113281 34.363281 "/>
</svg>
</svg>