<svg xmlns="http://www.w3.org/2000/svg" viewBox="0 0 48 48" width="48" height="48"><svg x="14.0" y="14.0" width="19.0" height="19.0" viewBox="0 0 36.1252 36.2555" preserveAspectRatio="none">
<defs>
<clipPath id="i0-clip-0">
<path clip-rule="nonzero" d="M 11 0.0664062 L 24 0.0664062 L 24 35.464844 L 11 35.464844 Z M 11 0.0664062 "/>
</clipPath>
<clipPath id="i0-clip-1">
<path clip-rule="nonzero" d="M 0 12 L 35.269531 12 L 35.269531 24 L 0 24 Z M 0 12 "/>
</clipPath>
</defs>
<g clip-path="url(#i0-clip-0)">
<path fill-rule="nonzero" fill="#fff" fill-opacity="1" d="M 17.636719 0.0664062 L 11.875 5.824219 L 15.851562 5.40625 L 15.761719 10.855469 L 19.417969 10.855469 L 19.328125 5.402344 L 23.394531 5.824219 Z M 15.804688 24.671875 L 15.898438 30.125 L 11.875 29.703125 L 17.636719 35.464844 L 23.394531 29.703125 L 19.371094 30.125 L 19.464844 24.671875 Z M 15.804688 24.671875 "/>
</g>
<g clip-path="url(#i0-clip-1)">
<path fill-rule="nonzero" fill="#fff" fill-opacity="1" d="M 0 17.777344 L 5.761719 23.539062 L 5.339844 19.5625 L 10.789062 19.652344 L 10.789062 15.996094 L 5.335938 16.085938 L 5.761719 12.019531 Z M 29.933594 16.085938 L 24.480469 15.996094 L 24.480469 19.652344 L 29.933594 19.5625 L 29.511719 23.582031 L 35.269531 17.824219 L 29.511719 12.0625 Z M 29.933594 16.085938 "/>
</g>
<path fill-rule="nonzero" fill="#fff" fill-opacity="1" d="M 17.636719 13.851562 C 15.472656 13.851562 13.722656 15.601562 13.722656 17.765625 C 13.722656 19.925781 15.472656 21.679688 17.636719 21.679688 C 19.796875 21.679688 21.550781 19.925781 21.550781 17.765625 C 21.550781 15.601562 19.796875 13.851562 17.636719 13.851562 "/>
</svg>
</svg>